<svg width="61" height="58" viewBox="0 0 61 58" fill="none" xmlns="http://www.w3.org/2000/svg">
<path d="M56.8696 0H4.87162C2.66557 0 0.870605 1.79508 0.870605 4.00102V37C0.870605 37.5519 1.31861 37.9999 1.87057 37.9999H59.8705C60.4225 37.9999 60.8705 37.5519 60.8705 37V4.00102C60.8706 1.79508 59.0756 0 56.8696 0ZM58.8706 36H2.87064V4.00102C2.87064 2.89699 3.76865 2.00004 4.87162 2.00004H56.8696C57.9726 2.00004 58.8706 2.89699 58.8706 4.00102V36Z" fill="#EF2A82"/>
<path d="M59.8706 35.9999H1.87057C1.31861 35.9999 0.870605 36.448 0.870605 37V41.9989C0.870605 44.2049 2.66557 45.9999 4.87162 45.9999H56.8696C59.0756 45.9999 60.8706 44.2049 60.8706 41.9989L60.8705 37C60.8705 36.448 60.4226 35.9999 59.8706 35.9999ZM58.8706 41.999C58.8706 43.103 57.9726 44 56.8696 44H4.87162C3.76865 44 2.87064 43.103 2.87064 41.999V38H58.8707L58.8706 41.999Z" fill="#EF2A82"/>
<path d="M55.8705 4.00005H5.87061C5.31866 4.00005 4.87065 4.44806 4.87065 5.00001V37C4.87065 37.552 5.31866 38 5.87061 38H55.8707C56.4226 38 56.8706 37.552 56.8706 37V5.00001C56.8706 4.44806 56.4226 4.00005 55.8705 4.00005ZM54.8706 36H6.87058V5.99997H54.8706V36Z" fill="#EF2A82"/>
<path d="M43.8705 52.0001H17.8706C16.2166 52.0001 14.8706 53.3461 14.8706 55.0001C14.8706 56.6541 16.2166 58.0001 17.8706 58.0001H43.8706C45.5246 58.0001 46.8706 56.6541 46.8706 55.0001C46.8706 53.3461 45.5245 52.0001 43.8705 52.0001ZM43.8705 56H17.8706C17.3187 56 16.8706 55.5511 16.8706 55.0001C16.8706 54.4491 17.3187 54.0001 17.8706 54.0001H43.8706C44.4226 54.0001 44.8706 54.4491 44.8706 55.0001C44.8706 55.5511 44.4226 56 43.8705 56Z" fill="#EF2A82"/>
<path d="M41.8706 52.0001C38.5525 52.0001 36.8705 49.6451 36.8705 45.0001C36.8705 44.4482 36.4225 44.0001 35.8706 44.0001H25.8706C25.3187 44.0001 24.8707 44.4482 24.8707 45.0001C24.8707 49.6451 23.1887 52.0001 19.8706 52.0001C19.3187 52.0001 18.8707 52.4481 18.8707 53C18.8707 53.552 19.3187 54 19.8706 54H41.8706C42.4225 54 42.8705 53.552 42.8705 53C42.8705 52.4481 42.4225 52.0001 41.8706 52.0001ZM24.7415 52.0001C25.9726 50.6361 26.6975 48.605 26.8435 46.0001H34.8985C35.0435 48.605 35.7685 50.6361 37.0005 52.0001H24.7415Z" fill="#EF2A82"/>
</svg>
